# xmcd
#
# Track frame offsets:
#	150
#	18272
#	35480
#	47620
#	64827
#	79165
#	91457
#	109200
#	120680
#	136695
#	152110
#	171987
#
# Disc length: 2511 seconds
# Revision: 5
# Processed by: cddbd v1.5.2PL0 Copyright (c) Steve Scherf et al.
# Submitted via: dBpowerAMP V12.0
#
DISCID=9909cd0c
DTITLE=Arthur Alexander - Lonely Just Like me
DYEAR=1993
DGENRE=Soul
TTITLE0=If It's Really Got to be This Way
TTITLE1=Go Home Girl
TTITLE2=Sally Sue Brown
TTITLE3=Mr. John
TTITLE4=Lonely Just Like me
TTITLE5=Every Day I Have to Cry
TTITLE6=In The Middle of it All
TTITLE7=Genie in The Jug
TTITLE8=Johnny Heartbreak
TTITLE9=All The Time
TTITLE10=There is a Road
TTITLE11=I Believe in Miracles
EXTD=
EXTT0=
EXTT1=
EXTT2=
EXTT3=
EXTT4=
EXTT5=
EXTT6=
EXTT7=
EXTT8=
EXTT9=
EXTT10=
EXTT11=
PLAYORDER=
